# MagicaVoxel @ ephtracy

# material
mtllib I_road.mtl
usemtl palette

# normals
vn -1 0 0
vn 1 0 0
vn 0 0 1
vn 0 0 -1
vn 0 -1 0
vn 0 1 0

# texcoords
vt 0.962891 0.5
vt 0.982422 0.5
vt 0.986328 0.5
vt 0.990234 0.5

# verts
v -16 0 16
v -16 0 -16
v -16 1 16
v -16 1 -16
v 16 0 16
v 16 0 -16
v 16 1 16
v 16 1 -16
v -16 0 16
v -16 1 16
v -12 0 16
v -12 1 16
v -11 0 16
v -11 1 16
v -1 0 16
v -1 1 16
v 1 0 16
v 1 1 16
v 11 0 16
v 11 1 16
v 12 0 16
v 12 1 16
v 16 0 16
v 16 1 16
v -16 0 -16
v -16 1 -16
v -12 0 -16
v -12 1 -16
v -11 0 -16
v -11 1 -16
v -1 0 -16
v -1 1 -16
v 1 0 -16
v 1 1 -16
v 11 0 -16
v 11 1 -16
v 12 0 -16
v 12 1 -16
v 16 0 -16
v 16 1 -16
v -16 0 16
v -12 0 16
v -11 0 16
v -1 0 16
v 1 0 16
v 11 0 16
v 12 0 16
v 16 0 16
v -1 0 13
v 1 0 13
v -1 0 11
v 1 0 11
v -1 0 5
v 1 0 5
v -1 0 3
v 1 0 3
v -1 0 -3
v 1 0 -3
v -1 0 -5
v 1 0 -5
v -1 0 -11
v 1 0 -11
v -1 0 -13
v 1 0 -13
v -16 0 -16
v -12 0 -16
v -11 0 -16
v -1 0 -16
v 1 0 -16
v 11 0 -16
v 12 0 -16
v 16 0 -16
v -16 1 16
v -12 1 16
v -11 1 16
v -1 1 16
v 1 1 16
v 11 1 16
v 12 1 16
v 16 1 16
v -1 1 13
v 1 1 13
v -1 1 11
v 1 1 11
v -1 1 5
v 1 1 5
v -1 1 3
v 1 1 3
v -1 1 -3
v 1 1 -3
v -1 1 -5
v 1 1 -5
v -1 1 -11
v 1 1 -11
v -1 1 -13
v 1 1 -13
v -16 1 -16
v -12 1 -16
v -11 1 -16
v -1 1 -16
v 1 1 -16
v 11 1 -16
v 12 1 -16
v 16 1 -16

# faces
f 3/3/1 2/3/1 1/3/1
f 4/3/1 2/3/1 3/3/1
f 5/3/2 6/3/2 7/3/2
f 7/3/2 6/3/2 8/3/2
f 11/3/3 10/3/3 9/3/3
f 12/3/3 10/3/3 11/3/3
f 13/2/3 12/2/3 11/2/3
f 14/2/3 12/2/3 13/2/3
f 15/4/3 14/4/3 13/4/3
f 16/4/3 14/4/3 15/4/3
f 17/1/3 16/1/3 15/1/3
f 18/1/3 16/1/3 17/1/3
f 19/4/3 18/4/3 17/4/3
f 20/4/3 18/4/3 19/4/3
f 21/2/3 20/2/3 19/2/3
f 22/2/3 20/2/3 21/2/3
f 23/3/3 22/3/3 21/3/3
f 24/3/3 22/3/3 23/3/3
f 25/3/4 26/3/4 27/3/4
f 27/3/4 26/3/4 28/3/4
f 27/2/4 28/2/4 29/2/4
f 29/2/4 28/2/4 30/2/4
f 29/4/4 30/4/4 31/4/4
f 31/4/4 30/4/4 32/4/4
f 31/1/4 32/1/4 33/1/4
f 33/1/4 32/1/4 34/1/4
f 33/4/4 34/4/4 35/4/4
f 35/4/4 34/4/4 36/4/4
f 35/2/4 36/2/4 37/2/4
f 37/2/4 36/2/4 38/2/4
f 37/3/4 38/3/4 39/3/4
f 39/3/4 38/3/4 40/3/4
f 49/4/5 44/4/5 43/4/5
f 49/1/5 45/1/5 44/1/5
f 50/4/5 46/4/5 45/4/5
f 50/1/5 45/1/5 49/1/5
f 51/4/5 49/4/5 43/4/5
f 51/4/5 50/4/5 49/4/5
f 52/4/5 46/4/5 50/4/5
f 52/4/5 50/4/5 51/4/5
f 53/4/5 51/4/5 43/4/5
f 53/1/5 52/1/5 51/1/5
f 54/4/5 46/4/5 52/4/5
f 54/1/5 52/1/5 53/1/5
f 55/4/5 53/4/5 43/4/5
f 55/4/5 54/4/5 53/4/5
f 56/4/5 46/4/5 54/4/5
f 56/4/5 54/4/5 55/4/5
f 57/4/5 55/4/5 43/4/5
f 57/1/5 56/1/5 55/1/5
f 58/4/5 46/4/5 56/4/5
f 58/1/5 56/1/5 57/1/5
f 59/4/5 57/4/5 43/4/5
f 59/4/5 58/4/5 57/4/5
f 60/4/5 46/4/5 58/4/5
f 60/4/5 58/4/5 59/4/5
f 61/4/5 59/4/5 43/4/5
f 61/1/5 60/1/5 59/1/5
f 62/4/5 46/4/5 60/4/5
f 62/1/5 60/1/5 61/1/5
f 63/4/5 61/4/5 43/4/5
f 63/4/5 62/4/5 61/4/5
f 64/4/5 46/4/5 62/4/5
f 64/4/5 62/4/5 63/4/5
f 65/3/5 42/3/5 41/3/5
f 66/2/5 43/2/5 42/2/5
f 66/3/5 42/3/5 65/3/5
f 67/4/5 63/4/5 43/4/5
f 67/2/5 43/2/5 66/2/5
f 68/1/5 64/1/5 63/1/5
f 68/4/5 63/4/5 67/4/5
f 69/4/5 46/4/5 64/4/5
f 69/1/5 64/1/5 68/1/5
f 70/2/5 47/2/5 46/2/5
f 70/4/5 46/4/5 69/4/5
f 71/3/5 48/3/5 47/3/5
f 71/2/5 47/2/5 70/2/5
f 72/3/5 48/3/5 71/3/5
f 75/4/6 76/4/6 81/4/6
f 76/1/6 77/1/6 81/1/6
f 77/4/6 78/4/6 82/4/6
f 81/1/6 77/1/6 82/1/6
f 75/4/6 81/4/6 83/4/6
f 81/4/6 82/4/6 83/4/6
f 82/4/6 78/4/6 84/4/6
f 83/4/6 82/4/6 84/4/6
f 75/4/6 83/4/6 85/4/6
f 83/1/6 84/1/6 85/1/6
f 84/4/6 78/4/6 86/4/6
f 85/1/6 84/1/6 86/1/6
f 75/4/6 85/4/6 87/4/6
f 85/4/6 86/4/6 87/4/6
f 86/4/6 78/4/6 88/4/6
f 87/4/6 86/4/6 88/4/6
f 75/4/6 87/4/6 89/4/6
f 87/1/6 88/1/6 89/1/6
f 88/4/6 78/4/6 90/4/6
f 89/1/6 88/1/6 90/1/6
f 75/4/6 89/4/6 91/4/6
f 89/4/6 90/4/6 91/4/6
f 90/4/6 78/4/6 92/4/6
f 91/4/6 90/4/6 92/4/6
f 75/4/6 91/4/6 93/4/6
f 91/1/6 92/1/6 93/1/6
f 92/4/6 78/4/6 94/4/6
f 93/1/6 92/1/6 94/1/6
f 75/4/6 93/4/6 95/4/6
f 93/4/6 94/4/6 95/4/6
f 94/4/6 78/4/6 96/4/6
f 95/4/6 94/4/6 96/4/6
f 73/3/6 74/3/6 97/3/6
f 74/2/6 75/2/6 98/2/6
f 97/3/6 74/3/6 98/3/6
f 75/4/6 95/4/6 99/4/6
f 98/2/6 75/2/6 99/2/6
f 95/1/6 96/1/6 100/1/6
f 99/4/6 95/4/6 100/4/6
f 96/4/6 78/4/6 101/4/6
f 100/1/6 96/1/6 101/1/6
f 78/2/6 79/2/6 102/2/6
f 101/4/6 78/4/6 102/4/6
f 79/3/6 80/3/6 103/3/6
f 102/2/6 79/2/6 103/2/6
f 103/3/6 80/3/6 104/3/6
