# MagicaVoxel @ ephtracy

# material
mtllib X_road.mtl
usemtl palette

# normals
vn -1 0 0
vn 1 0 0
vn 0 0 1
vn 0 0 -1
vn 0 -1 0
vn 0 1 0

# texcoords
vt 0.962891 0.5
vt 0.982422 0.5
vt 0.986328 0.5
vt 0.990234 0.5

# verts
v -16 0 16
v -16 0 12
v -16 0 11
v -16 0 1
v -16 0 -1
v -16 0 -11
v -16 0 -12
v -16 0 -16
v -16 1 16
v -16 1 12
v -16 1 11
v -16 1 1
v -16 1 -1
v -16 1 -11
v -16 1 -12
v -16 1 -16
v 16 0 16
v 16 0 12
v 16 0 11
v 16 0 1
v 16 0 -1
v 16 0 -11
v 16 0 -12
v 16 0 -16
v 16 1 16
v 16 1 12
v 16 1 11
v 16 1 1
v 16 1 -1
v 16 1 -11
v 16 1 -12
v 16 1 -16
v -16 0 16
v -16 1 16
v -12 0 16
v -12 1 16
v -11 0 16
v -11 1 16
v -1 0 16
v -1 1 16
v 1 0 16
v 1 1 16
v 11 0 16
v 11 1 16
v 12 0 16
v 12 1 16
v 16 0 16
v 16 1 16
v -16 0 -16
v -16 1 -16
v -12 0 -16
v -12 1 -16
v -11 0 -16
v -11 1 -16
v -1 0 -16
v -1 1 -16
v 1 0 -16
v 1 1 -16
v 11 0 -16
v 11 1 -16
v 12 0 -16
v 12 1 -16
v 16 0 -16
v 16 1 -16
v -16 0 16
v -12 0 16
v -11 0 16
v -1 0 16
v 1 0 16
v 11 0 16
v 12 0 16
v 16 0 16
v -1 0 13
v 1 0 13
v -16 0 12
v -12 0 12
v 12 0 12
v 16 0 12
v -16 0 11
v -11 0 11
v 11 0 11
v 16 0 11
v -16 0 1
v -13 0 1
v 13 0 1
v 16 0 1
v -16 0 -1
v -13 0 -1
v 13 0 -1
v 16 0 -1
v -16 0 -11
v -11 0 -11
v 11 0 -11
v 16 0 -11
v -16 0 -12
v -12 0 -12
v 12 0 -12
v 16 0 -12
v -1 0 -13
v 1 0 -13
v -16 0 -16
v -12 0 -16
v -11 0 -16
v -1 0 -16
v 1 0 -16
v 11 0 -16
v 12 0 -16
v 16 0 -16
v -16 1 16
v -12 1 16
v -11 1 16
v -1 1 16
v 1 1 16
v 11 1 16
v 12 1 16
v 16 1 16
v -1 1 13
v 1 1 13
v -16 1 12
v -12 1 12
v 12 1 12
v 16 1 12
v -16 1 11
v -11 1 11
v 11 1 11
v 16 1 11
v -16 1 1
v -13 1 1
v 13 1 1
v 16 1 1
v -16 1 -1
v -13 1 -1
v 13 1 -1
v 16 1 -1
v -16 1 -11
v -11 1 -11
v 11 1 -11
v 16 1 -11
v -16 1 -12
v -12 1 -12
v 12 1 -12
v 16 1 -12
v -1 1 -13
v 1 1 -13
v -16 1 -16
v -12 1 -16
v -11 1 -16
v -1 1 -16
v 1 1 -16
v 11 1 -16
v 12 1 -16
v 16 1 -16

# faces
f 9/3/1 2/3/1 1/3/1
f 10/2/1 3/2/1 2/2/1
f 10/3/1 2/3/1 9/3/1
f 11/4/1 4/4/1 3/4/1
f 11/2/1 3/2/1 10/2/1
f 12/1/1 5/1/1 4/1/1
f 12/4/1 4/4/1 11/4/1
f 13/4/1 6/4/1 5/4/1
f 13/1/1 5/1/1 12/1/1
f 14/2/1 7/2/1 6/2/1
f 14/4/1 6/4/1 13/4/1
f 15/3/1 8/3/1 7/3/1
f 15/2/1 7/2/1 14/2/1
f 16/3/1 8/3/1 15/3/1
f 17/3/2 18/3/2 25/3/2
f 18/2/2 19/2/2 26/2/2
f 25/3/2 18/3/2 26/3/2
f 19/4/2 20/4/2 27/4/2
f 26/2/2 19/2/2 27/2/2
f 20/1/2 21/1/2 28/1/2
f 27/4/2 20/4/2 28/4/2
f 21/4/2 22/4/2 29/4/2
f 28/1/2 21/1/2 29/1/2
f 22/2/2 23/2/2 30/2/2
f 29/4/2 22/4/2 30/4/2
f 23/3/2 24/3/2 31/3/2
f 30/2/2 23/2/2 31/2/2
f 31/3/2 24/3/2 32/3/2
f 35/3/3 34/3/3 33/3/3
f 36/3/3 34/3/3 35/3/3
f 37/2/3 36/2/3 35/2/3
f 38/2/3 36/2/3 37/2/3
f 39/4/3 38/4/3 37/4/3
f 40/4/3 38/4/3 39/4/3
f 41/1/3 40/1/3 39/1/3
f 42/1/3 40/1/3 41/1/3
f 43/4/3 42/4/3 41/4/3
f 44/4/3 42/4/3 43/4/3
f 45/2/3 44/2/3 43/2/3
f 46/2/3 44/2/3 45/2/3
f 47/3/3 46/3/3 45/3/3
f 48/3/3 46/3/3 47/3/3
f 49/3/4 50/3/4 51/3/4
f 51/3/4 50/3/4 52/3/4
f 51/2/4 52/2/4 53/2/4
f 53/2/4 52/2/4 54/2/4
f 53/4/4 54/4/4 55/4/4
f 55/4/4 54/4/4 56/4/4
f 55/1/4 56/1/4 57/1/4
f 57/1/4 56/1/4 58/1/4
f 57/4/4 58/4/4 59/4/4
f 59/4/4 58/4/4 60/4/4
f 59/2/4 60/2/4 61/2/4
f 61/2/4 60/2/4 62/2/4
f 61/3/4 62/3/4 63/3/4
f 63/3/4 62/3/4 64/3/4
f 73/4/5 68/4/5 67/4/5
f 73/1/5 69/1/5 68/1/5
f 74/4/5 70/4/5 69/4/5
f 74/1/5 69/1/5 73/1/5
f 75/3/5 66/3/5 65/3/5
f 76/2/5 67/2/5 66/2/5
f 76/3/5 66/3/5 75/3/5
f 77/3/5 72/3/5 71/3/5
f 77/2/5 71/2/5 70/2/5
f 78/3/5 72/3/5 77/3/5
f 79/2/5 76/2/5 75/2/5
f 80/2/5 67/2/5 76/2/5
f 80/2/5 76/2/5 79/2/5
f 80/4/5 73/4/5 67/4/5
f 80/4/5 74/4/5 73/4/5
f 81/4/5 70/4/5 74/4/5
f 81/4/5 74/4/5 80/4/5
f 81/2/5 78/2/5 77/2/5
f 81/2/5 77/2/5 70/2/5
f 82/2/5 78/2/5 81/2/5
f 83/4/5 80/4/5 79/4/5
f 83/4/5 81/4/5 80/4/5
f 83/4/5 82/4/5 81/4/5
f 84/4/5 82/4/5 83/4/5
f 85/4/5 82/4/5 84/4/5
f 86/4/5 82/4/5 85/4/5
f 87/1/5 84/1/5 83/1/5
f 88/4/5 85/4/5 84/4/5
f 88/1/5 84/1/5 87/1/5
f 89/1/5 86/1/5 85/1/5
f 89/4/5 85/4/5 88/4/5
f 90/1/5 86/1/5 89/1/5
f 91/4/5 88/4/5 87/4/5
f 91/4/5 89/4/5 88/4/5
f 91/4/5 90/4/5 89/4/5
f 92/4/5 90/4/5 91/4/5
f 93/4/5 90/4/5 92/4/5
f 94/4/5 90/4/5 93/4/5
f 95/2/5 92/2/5 91/2/5
f 96/2/5 92/2/5 95/2/5
f 97/2/5 94/2/5 93/2/5
f 98/2/5 94/2/5 97/2/5
f 99/4/5 93/4/5 92/4/5
f 100/4/5 93/4/5 99/4/5
f 101/3/5 96/3/5 95/3/5
f 102/2/5 92/2/5 96/2/5
f 102/3/5 96/3/5 101/3/5
f 103/4/5 99/4/5 92/4/5
f 103/2/5 92/2/5 102/2/5
f 104/1/5 100/1/5 99/1/5
f 104/4/5 99/4/5 103/4/5
f 105/4/5 93/4/5 100/4/5
f 105/1/5 100/1/5 104/1/5
f 106/2/5 97/2/5 93/2/5
f 106/4/5 93/4/5 105/4/5
f 107/3/5 98/3/5 97/3/5
f 107/2/5 97/2/5 106/2/5
f 108/3/5 98/3/5 107/3/5
f 111/4/6 112/4/6 117/4/6
f 112/1/6 113/1/6 117/1/6
f 113/4/6 114/4/6 118/4/6
f 117/1/6 113/1/6 118/1/6
f 109/3/6 110/3/6 119/3/6
f 110/2/6 111/2/6 120/2/6
f 119/3/6 110/3/6 120/3/6
f 115/3/6 116/3/6 121/3/6
f 114/2/6 115/2/6 121/2/6
f 121/3/6 116/3/6 122/3/6
f 119/2/6 120/2/6 123/2/6
f 120/2/6 111/2/6 124/2/6
f 123/2/6 120/2/6 124/2/6
f 111/4/6 117/4/6 124/4/6
f 117/4/6 118/4/6 124/4/6
f 118/4/6 114/4/6 125/4/6
f 124/4/6 118/4/6 125/4/6
f 121/2/6 122/2/6 125/2/6
f 114/2/6 121/2/6 125/2/6
f 125/2/6 122/2/6 126/2/6
f 123/4/6 124/4/6 127/4/6
f 124/4/6 125/4/6 127/4/6
f 125/4/6 126/4/6 127/4/6
f 127/4/6 126/4/6 128/4/6
f 128/4/6 126/4/6 129/4/6
f 129/4/6 126/4/6 130/4/6
f 127/1/6 128/1/6 131/1/6
f 128/4/6 129/4/6 132/4/6
f 131/1/6 128/1/6 132/1/6
f 129/1/6 130/1/6 133/1/6
f 132/4/6 129/4/6 133/4/6
f 133/1/6 130/1/6 134/1/6
f 131/4/6 132/4/6 135/4/6
f 132/4/6 133/4/6 135/4/6
f 133/4/6 134/4/6 135/4/6
f 135/4/6 134/4/6 136/4/6
f 136/4/6 134/4/6 137/4/6
f 137/4/6 134/4/6 138/4/6
f 135/2/6 136/2/6 139/2/6
f 139/2/6 136/2/6 140/2/6
f 137/2/6 138/2/6 141/2/6
f 141/2/6 138/2/6 142/2/6
f 136/4/6 137/4/6 143/4/6
f 143/4/6 137/4/6 144/4/6
f 139/3/6 140/3/6 145/3/6
f 140/2/6 136/2/6 146/2/6
f 145/3/6 140/3/6 146/3/6
f 136/4/6 143/4/6 147/4/6
f 146/2/6 136/2/6 147/2/6
f 143/1/6 144/1/6 148/1/6
f 147/4/6 143/4/6 148/4/6
f 144/4/6 137/4/6 149/4/6
f 148/1/6 144/1/6 149/1/6
f 137/2/6 141/2/6 150/2/6
f 149/4/6 137/4/6 150/4/6
f 141/3/6 142/3/6 151/3/6
f 150/2/6 141/2/6 151/2/6
f 151/3/6 142/3/6 152/3/6
